<svg width="195" height="52" viewBox="0 0 195 52" fill="none" xmlns="http://www.w3.org/2000/svg">
<path d="M162.607 40.0742C170.236 40.0742 176.553 33.7441 176.553 26.1289C176.553 18.5 170.223 12.1836 162.594 12.1836C154.979 12.1836 148.662 18.5 148.662 26.1289C148.662 33.7441 154.992 40.0742 162.607 40.0742ZM162.607 37.75C156.154 37.75 151 32.582 151 26.1289C151 19.6758 156.141 14.5078 162.594 14.5078C169.047 14.5078 174.215 19.6758 174.229 26.1289C174.242 32.582 169.061 37.75 162.607 37.75ZM156.223 28.1113C157.316 28.1113 158.205 27.2227 158.205 26.1152C158.205 25.0215 157.303 24.1328 156.223 24.1328C155.115 24.1328 154.227 25.0215 154.227 26.1152C154.227 27.2227 155.115 28.1113 156.223 28.1113ZM162.594 28.1113C163.688 28.1113 164.59 27.2227 164.59 26.1152C164.59 25.0215 163.688 24.1328 162.594 24.1328C161.5 24.1328 160.598 25.0215 160.598 26.1152C160.598 27.2227 161.5 28.1113 162.594 28.1113ZM168.979 28.1113C170.072 28.1113 170.961 27.2227 170.961 26.1152C170.961 25.0215 170.072 24.1328 168.979 24.1328C167.871 24.1328 166.982 25.0215 166.982 26.1152C166.982 27.2227 167.871 28.1113 168.979 28.1113Z" fill="white"/>
</svg>
